# xmcd CD database file
#
# Track frame offsets:
#	150
#	14387
#	34443
#	46507
#	64040
#	81041
#
# Disc length: 1326 seconds
#
# Revision: 0
# Processed by: cddbd v1.5.2PL0 Copyright (c) Steve Scherf et al.
# Submitted via: ACXtractor (MTCDDB.DLL V2003.12.21)
#
DISCID=40052c06
DTITLE=Kenny Welch Band - Crank It Up
DYEAR=2007
DGENRE=Country
TTITLE0=Crank It Up
TTITLE1=Angel of My Life
TTITLE2=Country Girls
TTITLE3=Cowgirl in Cut-Off Jeans
TTITLE4=My Babe
TTITLE5=Hello Nathan
EXTD=ID3G:   2 YEAR: 2007
EXTT0=
EXTT1=
EXTT2=
EXTT3=
EXTT4=
EXTT5=
PLAYORDER=
